{
	"asset":{
		"generator":"Khronos glTF Blender I/O v5.1.18",
		"version":"2.0"
	},
	"scene":0,
	"scenes":[
		{
			"name":"Scene",
			"nodes":[
				0
			]
		}
	],
	"nodes":[
		{
			"mesh":0,
			"name":"AllSky_DemoEnvironment"
		}
	],
	"materials":[
		{
			"doubleSided":true,
			"name":"AllSkyFree_DemoEnvMat",
			"pbrMetallicRoughness":{
				"baseColorFactor":[
					0.800000011920929,
					0.800000011920929,
					0.800000011920929,
					1
				],
				"metallicFactor":0,
				"roughnessFactor":0.5
			}
		},
		{
			"doubleSided":true,
			"name":"AllSkyFree_DemoEnvReflect",
			"pbrMetallicRoughness":{
				"baseColorFactor":[
					0.015324397943913937,
					0.015324397943913937,
					0.015324397943913937,
					1
				],
				"metallicFactor":0,
				"roughnessFactor":0.5
			}
		}
	],
	"meshes":[
		{
			"name":"Cube.063",
			"primitives":[
				{
					"attributes":{
						"POSITION":0,
						"NORMAL":1,
						"TEXCOORD_0":2,
						"TEXCOORD_1":3
					},
					"indices":4,
					"material":0
				},
				{
					"attributes":{
						"POSITION":5,
						"NORMAL":6,
						"TEXCOORD_0":7,
						"TEXCOORD_1":8
					},
					"indices":9,
					"material":1
				}
			]
		}
	],
	"accessors":[
		{
			"bufferView":0,
			"componentType":5126,
			"count":83034,
			"max":[
				697.3569946289062,
				281.6778259277344,
				771.6141967773438
			],
			"min":[
				-812.1384887695312,
				-279.5309753417969,
				-787.68115234375
			],
			"type":"VEC3"
		},
		{
			"bufferView":1,
			"componentType":5126,
			"count":83034,
			"type":"VEC3"
		},
		{
			"bufferView":2,
			"componentType":5126,
			"count":83034,
			"type":"VEC2"
		},
		{
			"bufferView":3,
			"componentType":5126,
			"count":83034,
			"type":"VEC2"
		},
		{
			"bufferView":4,
			"componentType":5125,
			"count":99189,
			"type":"SCALAR"
		},
		{
			"bufferView":5,
			"componentType":5126,
			"count":257,
			"max":[
				9.836849212646484,
				15.084590911865234,
				17.06111717224121
			],
			"min":[
				-21.381298065185547,
				-0.5299109220504761,
				-14.15703296661377
			],
			"type":"VEC3"
		},
		{
			"bufferView":6,
			"componentType":5126,
			"count":257,
			"type":"VEC3"
		},
		{
			"bufferView":7,
			"componentType":5126,
			"count":257,
			"type":"VEC2"
		},
		{
			"bufferView":8,
			"componentType":5126,
			"count":257,
			"type":"VEC2"
		},
		{
			"bufferView":9,
			"componentType":5123,
			"count":1440,
			"type":"SCALAR"
		}
	],
	"bufferViews":[
		{
			"buffer":0,
			"byteLength":996408,
			"byteOffset":0,
			"target":34962
		},
		{
			"buffer":0,
			"byteLength":996408,
			"byteOffset":996408,
			"target":34962
		},
		{
			"buffer":0,
			"byteLength":664272,
			"byteOffset":1992816,
			"target":34962
		},
		{
			"buffer":0,
			"byteLength":664272,
			"byteOffset":2657088,
			"target":34962
		},
		{
			"buffer":0,
			"byteLength":396756,
			"byteOffset":3321360,
			"target":34963
		},
		{
			"buffer":0,
			"byteLength":3084,
			"byteOffset":3718116,
			"target":34962
		},
		{
			"buffer":0,
			"byteLength":3084,
			"byteOffset":3721200,
			"target":34962
		},
		{
			"buffer":0,
			"byteLength":2056,
			"byteOffset":3724284,
			"target":34962
		},
		{
			"buffer":0,
			"byteLength":2056,
			"byteOffset":3726340,
			"target":34962
		},
		{
			"buffer":0,
			"byteLength":2880,
			"byteOffset":3728396,
			"target":34963
		}
	],
	"buffers":[
		{
			"byteLength":3731276,
			"uri":"AllSky_DemoEnvironment-7fd55d4475622f008b2420fdff1368f1.bin"
		}
	]
}
